<mxfile host="app.diagrams.net" modified="2021-11-22T11:44:52.477Z" agent="5.0 (Windows NT 10.0; Win64; x64) AppleWebKit/537.36 (KHTML, like Gecko) Chrome/96.0.4664.45 Safari/537.36" etag="S0Mu4C1dHuwMH3u8U_yi" version="15.8.3" type="github">
  <diagram id="0nlqQP0MJAXhbqn_m-g9" name="Page-1">
    <mxGraphModel dx="1422" dy="794" grid="1" gridSize="10" guides="1" tooltips="1" connect="1" arrows="1" fold="1" page="1" pageScale="1" pageWidth="827" pageHeight="1169" math="0" shadow="0">
      <root>
        <mxCell id="0" />
        <mxCell id="1" parent="0" />
        <mxCell id="sBfbw9Vd1lmHlVCLz8KO-1" value="Computer" style="swimlane;fontStyle=1;align=center;verticalAlign=top;childLayout=stackLayout;horizontal=1;startSize=26;horizontalStack=0;resizeParent=1;resizeParentMax=0;resizeLast=0;collapsible=1;marginBottom=0;" vertex="1" parent="1">
          <mxGeometry x="90" y="60" width="160" height="180" as="geometry" />
        </mxCell>
        <mxCell id="sBfbw9Vd1lmHlVCLz8KO-2" value="- ram: small&#xa;- cpu: Procesor&#xa;- gpu: string" style="text;strokeColor=none;fillColor=none;align=left;verticalAlign=top;spacingLeft=4;spacingRight=4;overflow=hidden;rotatable=0;points=[[0,0.5],[1,0.5]];portConstraint=eastwest;" vertex="1" parent="sBfbw9Vd1lmHlVCLz8KO-1">
          <mxGeometry y="26" width="160" height="54" as="geometry" />
        </mxCell>
        <mxCell id="sBfbw9Vd1lmHlVCLz8KO-3" value="" style="line;strokeWidth=1;fillColor=none;align=left;verticalAlign=middle;spacingTop=-1;spacingLeft=3;spacingRight=3;rotatable=0;labelPosition=right;points=[];portConstraint=eastwest;" vertex="1" parent="sBfbw9Vd1lmHlVCLz8KO-1">
          <mxGeometry y="80" width="160" height="8" as="geometry" />
        </mxCell>
        <mxCell id="sBfbw9Vd1lmHlVCLz8KO-4" value="+ printHelloWorld(): void&#xa;+ showSpecs(): void" style="text;strokeColor=none;fillColor=none;align=left;verticalAlign=top;spacingLeft=4;spacingRight=4;overflow=hidden;rotatable=0;points=[[0,0.5],[1,0.5]];portConstraint=eastwest;" vertex="1" parent="sBfbw9Vd1lmHlVCLz8KO-1">
          <mxGeometry y="88" width="160" height="92" as="geometry" />
        </mxCell>
        <mxCell id="sBfbw9Vd1lmHlVCLz8KO-5" value="Procesor" style="swimlane;fontStyle=1;align=center;verticalAlign=top;childLayout=stackLayout;horizontal=1;startSize=26;horizontalStack=0;resizeParent=1;resizeParentMax=0;resizeLast=0;collapsible=1;marginBottom=0;" vertex="1" parent="1">
          <mxGeometry x="470" y="60" width="160" height="180" as="geometry" />
        </mxCell>
        <mxCell id="sBfbw9Vd1lmHlVCLz8KO-6" value="- speed: float&#xa;- cashSize: int&#xa;- numberOfCores: int" style="text;strokeColor=none;fillColor=none;align=left;verticalAlign=top;spacingLeft=4;spacingRight=4;overflow=hidden;rotatable=0;points=[[0,0.5],[1,0.5]];portConstraint=eastwest;" vertex="1" parent="sBfbw9Vd1lmHlVCLz8KO-5">
          <mxGeometry y="26" width="160" height="64" as="geometry" />
        </mxCell>
        <mxCell id="sBfbw9Vd1lmHlVCLz8KO-7" value="" style="line;strokeWidth=1;fillColor=none;align=left;verticalAlign=middle;spacingTop=-1;spacingLeft=3;spacingRight=3;rotatable=0;labelPosition=right;points=[];portConstraint=eastwest;" vertex="1" parent="sBfbw9Vd1lmHlVCLz8KO-5">
          <mxGeometry y="90" width="160" height="8" as="geometry" />
        </mxCell>
        <mxCell id="sBfbw9Vd1lmHlVCLz8KO-8" value="+ add(int): int&#xa;+ multiply(int, int): int&#xa;+ showProcSpecs(): String" style="text;strokeColor=none;fillColor=none;align=left;verticalAlign=top;spacingLeft=4;spacingRight=4;overflow=hidden;rotatable=0;points=[[0,0.5],[1,0.5]];portConstraint=eastwest;" vertex="1" parent="sBfbw9Vd1lmHlVCLz8KO-5">
          <mxGeometry y="98" width="160" height="82" as="geometry" />
        </mxCell>
        <mxCell id="sBfbw9Vd1lmHlVCLz8KO-9" value="" style="endArrow=diamondThin;endFill=1;endSize=24;html=1;rounded=0;" edge="1" parent="1" source="sBfbw9Vd1lmHlVCLz8KO-6">
          <mxGeometry width="160" relative="1" as="geometry">
            <mxPoint x="470" y="130" as="sourcePoint" />
            <mxPoint x="270" y="118" as="targetPoint" />
            <Array as="points">
              <mxPoint x="280" y="118" />
              <mxPoint x="250" y="118" />
            </Array>
          </mxGeometry>
        </mxCell>
      </root>
    </mxGraphModel>
  </diagram>
</mxfile>
